<svg width="14" height="14" viewBox="0 0 14 14" fill="none" xmlns="http://www.w3.org/2000/svg">
<path d="M2.625 2.1875L11.375 11.8125" stroke="currentColor" stroke-linecap="round" stroke-linejoin="round"/>
<path d="M8.47136 8.6191C8.04206 9.0093 7.47534 9.21299 6.89587 9.18537C6.3164 9.15775 5.77163 8.90108 5.38139 8.47182C4.99115 8.04255 4.78741 7.47586 4.81497 6.89638C4.84254 6.31691 5.09916 5.77211 5.52839 5.38184" stroke="currentColor" stroke-linecap="round" stroke-linejoin="round"/>
<path d="M4.04657 3.75098C1.817 4.88003 0.875 6.99977 0.875 6.99977C0.875 6.99977 2.625 10.9368 7 10.9368C8.02506 10.945 9.03732 10.7089 9.95299 10.2481" stroke="currentColor" stroke-linecap="round" stroke-linejoin="round"/>
<path d="M11.4066 9.24806C12.5989 8.18017 13.1232 7.00044 13.1232 7.00044C13.1232 7.00044 11.3732 3.06251 6.99825 3.06251C6.61933 3.06189 6.24101 3.0927 5.86719 3.15461" stroke="currentColor" stroke-linecap="round" stroke-linejoin="round"/>
<path d="M7.41016 4.85156C7.87509 4.94084 8.29855 5.17846 8.61701 5.52878C8.93547 5.87909 9.13176 6.32322 9.17645 6.79454" stroke="currentColor" stroke-linecap="round" stroke-linejoin="round"/>
</svg>
