<svg width="14" height="14" viewBox="0 0 14 14" fill="none" xmlns="http://www.w3.org/2000/svg">
<path d="M10.9379 12.25H3.0625C2.94647 12.25 2.83519 12.2039 2.75314 12.1219C2.67109 12.0398 2.625 11.9285 2.625 11.8125V2.1875C2.625 2.07147 2.67109 1.96019 2.75314 1.87814C2.83519 1.79609 2.94647 1.75 3.0625 1.75H8.31293L11.3754 4.8125V11.8125C11.3754 11.87 11.3641 11.9268 11.3421 11.9799C11.3201 12.033 11.2879 12.0812 11.2473 12.1219C11.2067 12.1625 11.1584 12.1947 11.1054 12.2167C11.0523 12.2387 10.9954 12.25 10.9379 12.25Z" stroke="currentColor" stroke-linecap="round" stroke-linejoin="round"/>
<path d="M8.3125 1.75V4.8125H11.3754" stroke="currentColor" stroke-linecap="round" stroke-linejoin="round"/>
<path d="M5.25 7.4375H8.75" stroke="currentColor" stroke-linecap="round" stroke-linejoin="round"/>
<path d="M5.25 9.1875H8.75" stroke="currentColor" stroke-linecap="round" stroke-linejoin="round"/>
</svg>
