<svg width="24" height="24" viewBox="0 0 24 24" fill="none" xmlns="http://www.w3.org/2000/svg">
<path d="M19.5 3.75006H4.5C4.08579 3.75006 3.75 4.08585 3.75 4.50006V19.5001C3.75 19.9143 4.08579 20.2501 4.5 20.2501H19.5C19.9142 20.2501 20.25 19.9143 20.25 19.5001V4.50006C20.25 4.08585 19.9142 3.75006 19.5 3.75006Z" stroke="white" stroke-width="1.5" stroke-linecap="round" stroke-linejoin="round"/>
<path d="M20.25 15.0001L16.2803 11.0304C16.1397 10.8897 15.9489 10.8107 15.75 10.8107C15.5511 10.8107 15.3603 10.8897 15.2197 11.0304L11.0303 15.2197C10.8897 15.3604 10.6989 15.4394 10.5 15.4394C10.3011 15.4394 10.1103 15.3604 9.96967 15.2197L8.03033 13.2804C7.88967 13.1397 7.69891 13.0607 7.5 13.0607C7.30108 13.0607 7.11032 13.1397 6.96967 13.2804L3.75 16.5001" stroke="white" stroke-width="1.5" stroke-linecap="round" stroke-linejoin="round"/>
<path d="M9.375 9.75006C9.99632 9.75006 10.5 9.24638 10.5 8.62506C10.5 8.00374 9.99632 7.50006 9.375 7.50006C8.75368 7.50006 8.25 8.00374 8.25 8.62506C8.25 9.24638 8.75368 9.75006 9.375 9.75006Z" fill="white"/>
</svg>
