<svg width="207" height="63" viewBox="0 0 207 63" fill="none" xmlns="http://www.w3.org/2000/svg">
<mask id="mask0_4_104" style="mask-type:luminance" maskUnits="userSpaceOnUse" x="6" y="3" width="58" height="59">
<path d="M6.33008 3.94788H63.3119V61.5784H6.33008V3.94788Z" fill="white"/>
</mask>
<g mask="url(#mask0_4_104)">
<path d="M34.8985 4.40503H42.0761C53.846 4.40503 63.422 14.0007 63.422 25.7921V61.5604H27.7188C15.9488 61.5604 6.3728 51.9669 6.3728 40.1755V32.9827H18.2731V40.1755C18.2731 45.3956 22.5082 49.6384 27.7188 49.6384H51.524V25.7921C51.524 20.5743 47.2844 16.327 42.0761 16.327H34.8985V4.40503Z" fill="#CC0000"/>
</g>
<mask id="mask1_4_104" style="mask-type:luminance" maskUnits="userSpaceOnUse" x="0" y="0" width="26" height="26">
<path d="M0.496826 0.572144H25.8958V25.8552H0.496826V0.572144Z" fill="white"/>
</mask>
<g mask="url(#mask1_4_104)">
<path d="M8.94895 8.75816H0.494629V17.095H8.94895V25.5647H17.2729V17.095H25.725V8.75816H17.2729V0.288452H8.94895V8.75816Z" fill="#222222"/>
</g>
<mask id="mask2_4_104" style="mask-type:luminance" maskUnits="userSpaceOnUse" x="34" y="3" width="30" height="59">
<path d="M34.5276 3.94788H63.3118V61.5784H34.5276V3.94788Z" fill="white"/>
</mask>
<g mask="url(#mask2_4_104)">
<path d="M34.8984 4.40503H42.076C53.8459 4.40503 63.4219 14.0007 63.4219 25.7921V61.5604H62.8307L51.2788 49.6384H51.5238V25.7921C51.5238 20.5743 47.2843 16.327 42.076 16.327H34.8984V4.40503Z" fill="#CC0000"/>
</g>
<path d="M69.781 45.0617V10.111H76.156V24.6408H91.8103V10.111H98.1854V45.0617H91.8103V29.8293H76.156V45.0617H69.781Z" fill="#222222"/>
<path d="M100.231 45.0617V10.111H123.007V15.2545H106.606V24.8389H121.514V29.8293H106.606V39.9182H123.007V45.0617H100.231Z" fill="#222222"/>
<path d="M122.054 45.0617L134.813 10.111H141.997L154.757 45.0617H147.977L145.181 36.9726H131.576L128.735 45.0617H122.054ZM133.321 31.9822H143.436L138.356 17.4524L133.321 31.9822Z" fill="#222222"/>
<path d="M154.503 45.0617V10.111H167.307C170.099 10.111 172.401 10.5861 174.212 11.5342C176.022 12.4846 177.377 13.7659 178.277 15.3806C179.176 16.9975 179.625 18.7856 179.625 20.7493C179.625 22.8752 179.068 24.8209 177.953 26.5865C176.838 28.352 175.103 29.6357 172.747 30.4329L179.967 45.0617H172.648L166.165 31.2796H160.878V45.0617H154.503ZM160.878 26.5865H166.911C169.038 26.5865 170.6 26.0708 171.596 25.0371C172.589 24.0057 173.088 22.641 173.088 20.9475C173.088 19.2855 172.596 17.9546 171.614 16.957C170.636 15.9549 169.054 15.4527 166.866 15.4527H160.878V26.5865Z" fill="#222222"/>
<path d="M188.936 45.0617V15.2545H178.775V10.111H205.534V15.2545H195.32V45.0617H188.936Z" fill="#222222"/>
<path d="M70.0356 58.5407V51.6857H70.8629V54.7123H74.4055V51.6857H75.2328V58.5407H74.4055V55.3879H70.8629V58.5407H70.0356Z" fill="#222222"/>
<path d="M83.761 58.5407V51.6857H87.996V52.3613H84.5882V54.7484H87.7083V55.415H84.5882V57.8651H87.996V58.5407H83.761Z" fill="#222222"/>
<path d="M95.9397 58.5407L98.4573 51.6857H99.3295L101.838 58.5407H100.966L100.346 56.7751H97.4323L96.7939 58.5407H95.9397ZM97.6751 56.1086H100.103L98.8889 52.7216L97.6751 56.1086Z" fill="#222222"/>
<path d="M109.941 58.5407V51.6857H110.768V57.8831H113.951V58.5407H109.941Z" fill="#222222"/>
<path d="M123.771 58.5407V52.3613H121.729V51.6857H126.63V52.3613H124.589V58.5407H123.771Z" fill="#222222"/>
<path d="M134.723 58.5407V51.6857H135.551V54.7123H139.093V51.6857H139.921V58.5407H139.093V55.3879H135.551V58.5407H134.723Z" fill="#222222"/>
<path d="M151.452 58.6578C150.78 58.6578 150.202 58.5115 149.717 58.2165C149.231 57.9169 148.853 57.5026 148.584 56.9734C148.318 56.4396 148.188 55.8203 148.188 55.1177C148.188 54.4151 148.318 53.8003 148.584 53.2711C148.853 52.7374 149.231 52.3208 149.717 52.019C150.202 51.7195 150.78 51.5686 151.452 51.5686C152.236 51.5686 152.875 51.7578 153.367 52.1361C153.857 52.5099 154.172 53.0324 154.311 53.7035H153.394C153.291 53.2779 153.079 52.9356 152.756 52.6766C152.432 52.4199 151.996 52.2892 151.452 52.2892C150.966 52.2892 150.539 52.4041 150.175 52.6315C149.809 52.8545 149.528 53.1788 149.33 53.6044C149.132 54.0255 149.033 54.53 149.033 55.1177C149.033 55.701 149.132 56.2054 149.33 56.6311C149.528 57.0522 149.809 57.3765 150.175 57.6039C150.539 57.8269 150.966 57.9372 151.452 57.9372C151.996 57.9372 152.432 57.8111 152.756 57.5589C153.079 57.3067 153.291 56.9711 153.394 56.55H154.311C154.172 57.2121 153.857 57.7278 153.367 58.0994C152.875 58.4732 152.236 58.6578 151.452 58.6578Z" fill="#222222"/>
<path d="M162.152 58.5407L164.67 51.6857H165.542L168.051 58.5407H167.179L166.558 56.7751H163.645L163.007 58.5407H162.152ZM163.888 56.1086H166.315L165.102 52.7216L163.888 56.1086Z" fill="#222222"/>
<path d="M176.154 58.5407V51.6857H178.366C178.898 51.6857 179.332 51.7757 179.67 51.9559C180.011 52.1316 180.263 52.3703 180.425 52.6765C180.591 52.9828 180.677 53.3229 180.677 53.6944C180.677 54.1268 180.56 54.5187 180.326 54.8655C180.092 55.2078 179.732 55.451 179.247 55.5951L180.74 58.5407H179.777L178.384 55.7122H176.981V58.5407H176.154ZM176.981 55.0636H178.312C178.838 55.0636 179.222 54.9375 179.463 54.6853C179.701 54.4286 179.822 54.0998 179.822 53.7034C179.822 53.3026 179.701 52.9806 179.463 52.7396C179.229 52.5009 178.838 52.3793 178.294 52.3793H176.981V55.0636Z" fill="#222222"/>
<path d="M189.039 58.5407V51.6857H193.274V52.3613H189.866V54.7484H192.986V55.415H189.866V57.8651H193.274V58.5407H189.039Z" fill="#222222"/>
</svg>
